<svg width="54" height="54" viewBox="0 0 54 54" fill="none" xmlns="http://www.w3.org/2000/svg">
<path d="M27 0C12.0893 0 0 12.0893 0 27C0 41.9107 12.0893 54 27 54C41.9107 54 54 41.9107 54 27C54 12.0893 41.9107 0 27 0ZM24.0435 10.6088C31.4437 10.6088 37.4445 16.5937 37.4445 23.9805C37.4445 24.505 37.2361 25.0081 36.8652 25.379C36.4943 25.7499 35.9913 25.9583 35.4667 25.9583C34.9422 25.9583 34.4392 25.7499 34.0683 25.379C33.6974 25.0081 33.489 24.505 33.489 23.9805C33.486 21.4782 32.4893 19.0795 30.718 17.312C28.9466 15.5445 26.5458 14.5529 24.0435 14.5553C23.7764 14.568 23.5096 14.5264 23.2591 14.433C23.0085 14.3396 22.7796 14.1963 22.5861 14.0118C22.3926 13.8273 22.2385 13.6055 22.1333 13.3597C22.028 13.1139 21.9737 12.8494 21.9737 12.582C21.9737 12.3146 22.028 12.0501 22.1333 11.8043C22.2385 11.5585 22.3926 11.3367 22.5861 11.1522C22.7796 10.9677 23.0085 10.8244 23.2591 10.731C23.5096 10.6376 23.7764 10.596 24.0435 10.6088ZM12.5865 31.9928C12.0627 31.9928 11.5604 31.785 11.1896 31.4151C10.8188 31.0451 10.6099 30.5433 10.6088 30.0195C10.6102 28.2612 10.958 26.5205 11.6323 24.8967C12.3066 23.2728 13.2942 21.7977 14.5386 20.5556C15.783 19.3135 17.26 18.3286 18.885 17.6574C20.5101 16.9861 22.2515 16.6415 24.0097 16.6432C24.2784 16.6275 24.5475 16.6669 24.8004 16.7589C25.0534 16.8509 25.2848 16.9936 25.4806 17.1783C25.6764 17.3629 25.8324 17.5857 25.9391 17.8328C26.0457 18.0799 26.1007 18.3462 26.1007 18.6154C26.1007 18.8845 26.0457 19.1508 25.9391 19.398C25.8324 19.6451 25.6764 19.8678 25.4806 20.0525C25.2848 20.2372 25.0534 20.3799 24.8004 20.4719C24.5475 20.5639 24.2784 20.6032 24.0097 20.5875C21.5068 20.5857 19.1057 21.5781 17.3344 23.3465C15.5631 25.1148 14.5666 27.5143 14.5642 30.0173C14.5631 30.5412 14.3542 31.0433 13.9835 31.4136C13.6128 31.7839 13.1105 31.9922 12.5865 31.9928ZM29.9903 43.3935C22.5878 43.3935 16.587 37.404 16.587 30.0195C16.6112 29.5113 16.8302 29.0319 17.1985 28.6808C17.5667 28.3297 18.056 28.1339 18.5648 28.1339C19.0735 28.1339 19.5628 28.3297 19.9311 28.6808C20.2993 29.0319 20.5183 29.5113 20.5425 30.0195C20.544 31.2587 20.7895 32.4855 21.2651 33.6298C21.7407 34.7742 22.437 35.8136 23.3143 36.6888C24.1916 37.564 25.2327 38.2579 26.3782 38.7307C27.5237 39.2036 28.751 39.4462 29.9903 39.4448C30.2592 39.429 30.5286 39.4684 30.7818 39.5605C31.035 39.6526 31.2668 39.7955 31.4628 39.9804C31.6588 40.1653 31.815 40.3883 31.9217 40.6357C32.0284 40.8831 32.0835 41.1497 32.0835 41.4191C32.0835 41.6886 32.0284 41.9552 31.9217 42.2026C31.815 42.45 31.6588 42.673 31.4628 42.8579C31.2668 43.0427 31.035 43.1856 30.7818 43.2777C30.5286 43.3698 30.2592 43.4092 29.9903 43.3935ZM29.9903 37.3568C29.4667 37.3568 28.9644 37.1494 28.5933 36.78C28.2223 36.4106 28.0126 35.9093 28.0103 35.3857C28.0114 34.8614 28.2206 34.3589 28.5918 33.9886C28.963 33.6182 29.4659 33.4103 29.9903 33.4103C32.4932 33.4126 34.8946 32.4208 36.6663 30.6529C38.438 28.8849 39.435 26.4857 39.438 23.9827C39.438 23.4582 39.6464 22.9552 40.0173 22.5843C40.3882 22.2134 40.8912 22.005 41.4157 22.005C41.9403 22.005 42.4433 22.2134 42.8142 22.5843C43.1851 22.9552 43.3935 23.4582 43.3935 23.9827C43.3935 31.3672 37.3928 37.3568 29.9903 37.3568Z" fill="white"/>
</svg>
