<svg width="54" height="54" viewBox="0 0 54 54" fill="none" xmlns="http://www.w3.org/2000/svg">
<path d="M54 27C54 41.9117 41.9117 54 27 54C12.0883 54 0 41.9117 0 27C0 12.0883 12.0883 0 27 0C41.9117 0 54 12.0883 54 27Z" fill="white"/>
<path d="M27 46.6429C25.9 46.6429 24.958 46.2544 24.174 45.4774C23.39 44.7004 22.9987 43.7674 23 42.6786H31C31 43.7687 30.608 44.7023 29.824 45.4793C29.04 46.2563 28.0987 46.6442 27 46.6429ZM19 40.6964V36.7321H35V40.6964H19ZM19.5 34.75C17.2 33.3955 15.3747 31.5786 14.024 29.2991C12.6733 27.0196 11.9987 24.542 12 21.8661C12 17.7366 13.4587 14.2262 16.376 11.3349C19.2933 8.44366 22.8347 6.99868 27 7C31.1667 7 34.7087 8.44564 37.626 11.3369C40.5433 14.2282 42.0013 17.7379 42 21.8661C42 24.542 41.3253 27.0196 39.976 29.2991C38.6267 31.5786 36.8013 33.3955 34.5 34.75H19.5ZM20.7 30.7857H33.3C34.8 29.7286 35.9587 28.4237 36.776 26.871C37.5933 25.3183 38.0013 23.65 38 21.8661C38 18.8268 36.9333 16.25 34.8 14.1357C32.6667 12.0214 30.0667 10.9643 27 10.9643C23.9333 10.9643 21.3333 12.0214 19.2 14.1357C17.0667 16.25 16 18.8268 16 21.8661C16 23.65 16.4087 25.3183 17.226 26.871C18.0433 28.4237 19.2013 29.7286 20.7 30.7857Z" fill="#1E1E1E"/>
</svg>
